<svg id="visual" viewBox="0 0 1920 1080" width="1920" height="1080" xmlns="http://www.w3.org/2000/svg" xmlns:xlink="http://www.w3.org/1999/xlink" version="1.1">
	<rect x="0" y="0" width="1920" height="1080" fill="#000">
	</rect>
	<g transform="translate(983.32405261609 583.5990974011935)">
		<path d="M298.8 -371.1C372.7 -294.2 407.9 -186.2 414.3 -83C420.7 20.2 398.3 118.6 349.9 201.7C301.5 284.7 227.2 352.4 141.5 379.6C55.7 406.9 -41.4 393.7 -135.6 363.4C-229.8 333.1 -321 285.5 -383.3 207C-445.5 128.6 -478.8 19.1 -453.5 -72.2C-428.2 -163.6 -344.3 -236.9 -258.9 -311.9C-173.6 -386.8 -86.8 -463.4 12.9 -478.7C112.5 -494.1 225 -448.1 298.8 -371.1" fill="#BB004B">
		</path>
	</g>
</svg>
